M48
; DRILL file {KiCad (5.99.0-8616-g1e9639e89c)} date Wed Feb  3 17:52:55 2021
; FORMAT={-:-/ absolute / inch / decimal}
; #@! TF.CreationDate,2021-02-03T17:52:55+01:00
; #@! TF.GenerationSoftware,Kicad,Pcbnew,(5.99.0-8616-g1e9639e89c)
; #@! TF.FileFunction,Plated,1,2,PTH
FMAT,2
INCH
T1C0.0157
T2C0.0394
T3C0.1260
%
G90
G05
T1
X4.0Y-4.675
X4.0Y-4.8
X4.2Y-4.2
X4.2Y-4.8
X4.25Y-4.375
X4.25Y-4.65
X4.35Y-4.65
X4.4Y-4.2
X4.425Y-4.325
X4.5Y-5.1
X4.525Y-4.8
X4.58Y-4.575
X4.6Y-4.2
X4.67Y-4.48
X4.67Y-4.715
X4.7Y-4.4
X4.74Y-5.14
X4.745Y-4.47
X4.8Y-4.2
X4.8Y-4.7
X4.845Y-4.44
X4.95Y-4.6
X4.99Y-4.92
X5.0Y-4.2
X5.075Y-4.775
X5.095Y-4.45
X5.2Y-4.2
X5.4Y-4.675
X5.475Y-4.75
X5.55Y-4.2
X5.55Y-4.95
T2
X4.91Y-4.975
X4.91Y-5.075
X5.395Y-4.9031
X5.395Y-5.0016
X5.395Y-5.1
X5.405Y-4.2481
X5.405Y-4.3466
X5.405Y-4.445
T3
X4.175Y-4.3
X5.2Y-4.35
X5.2Y-5.0
T2
G00X4.0361Y-5.0663
M15
G01X4.0361Y-5.0269
M16
G05
G00X4.292Y-5.0545
M15
G01X4.3314Y-5.0545
M16
G05
G00X4.3511Y-4.7927
M15
G01X4.3511Y-4.773
M16
G05
G00X4.4022Y-5.147
M15
G01X4.4022Y-5.1273
M16
G05
T0
M30
