G04 #@! TF.GenerationSoftware,KiCad,Pcbnew,(5.99.0-8616-g1e9639e89c)*
G04 #@! TF.CreationDate,2021-02-03T17:52:52+01:00*
G04 #@! TF.ProjectId,sinitsa,616c6c62-616e-4642-9e6b-696361645f70,rev?*
G04 #@! TF.SameCoordinates,Original*
G04 #@! TF.FileFunction,Copper,L2,Bot*
G04 #@! TF.FilePolarity,Positive*
%FSLAX46Y46*%
G04 Gerber Fmt 4.6, Leading zero omitted, Abs format (unit mm)*
G04 Created by KiCad (PCBNEW (5.99.0-8616-g1e9639e89c)) date 2021-02-03 17:52:52*
%MOMM*%
%LPD*%
G01*
G04 APERTURE LIST*
G04 #@! TA.AperFunction,Profile*
%ADD10C,0.050000*%
G04 #@! TD*
G04 #@! TA.AperFunction,ComponentPad*
%ADD11O,2.600000X1.600000*%
G04 #@! TD*
G04 #@! TA.AperFunction,ComponentPad*
%ADD12O,1.700000X2.200000*%
G04 #@! TD*
G04 #@! TA.AperFunction,ComponentPad*
%ADD13O,1.700000X2.700000*%
G04 #@! TD*
G04 #@! TA.AperFunction,ComponentPad*
%ADD14R,1.700000X1.700000*%
G04 #@! TD*
G04 #@! TA.AperFunction,ComponentPad*
%ADD15O,1.700000X1.700000*%
G04 #@! TD*
G04 #@! TA.AperFunction,ComponentPad*
%ADD16C,1.800000*%
G04 #@! TD*
G04 #@! TA.AperFunction,SMDPad,CuDef*
%ADD17R,5.080000X1.500000*%
G04 #@! TD*
G04 #@! TA.AperFunction,ViaPad*
%ADD18C,4.000000*%
G04 #@! TD*
G04 #@! TA.AperFunction,ViaPad*
%ADD19C,0.800000*%
G04 #@! TD*
G04 #@! TA.AperFunction,Conductor*
%ADD20C,0.250000*%
G04 #@! TD*
G04 APERTURE END LIST*
D10*
X96520000Y-105410000D02*
X96520000Y-132080000D01*
X142240000Y-105410000D02*
X142240000Y-132080000D01*
X96520000Y-132080000D02*
X142240000Y-132080000D01*
X142240000Y-105410000D02*
X96520000Y-105410000D01*
D11*
G04 #@! TO.P,J2,B,B*
G04 #@! TO.N,N/C*
X109517000Y-128384000D03*
D12*
G04 #@! TO.P,J2,R,R*
G04 #@! TO.N,Net-(C7-Pad2)*
X111817000Y-130484000D03*
D13*
G04 #@! TO.P,J2,S,S*
G04 #@! TO.N,GNDA*
X102517000Y-128184000D03*
D12*
G04 #@! TO.P,J2,T,T*
G04 #@! TO.N,Net-(C7-Pad2)*
X110517000Y-121484000D03*
G04 #@! TD*
D14*
G04 #@! TO.P,BAT1,1,Pin_1*
G04 #@! TO.N,Net-(BAT1-Pad1)*
X124714000Y-126365000D03*
D15*
G04 #@! TO.P,BAT1,2,Pin_2*
G04 #@! TO.N,GNDA*
X124714000Y-128905000D03*
G04 #@! TD*
D16*
G04 #@! TO.P,R18,1,1*
G04 #@! TO.N,GNDA*
X137287000Y-112903000D03*
G04 #@! TO.P,R18,2,2*
G04 #@! TO.N,Net-(R18-Pad2)*
X137287000Y-110403000D03*
G04 #@! TO.P,R18,3,3*
G04 #@! TO.N,Net-(C3-Pad1)*
X137287000Y-107903000D03*
G04 #@! TD*
G04 #@! TO.P,R20,1,1*
G04 #@! TO.N,GNDA*
X137033000Y-129540000D03*
G04 #@! TO.P,R20,2,2*
G04 #@! TO.N,Net-(L1-Pad1)*
X137033000Y-127040000D03*
G04 #@! TO.P,R20,3,3*
G04 #@! TO.N,Net-(R19-Pad2)*
X137033000Y-124540000D03*
G04 #@! TD*
D17*
G04 #@! TO.P,X1,2,Ext*
G04 #@! TO.N,GNDA*
X100330000Y-107510000D03*
X100330000Y-116010000D03*
G04 #@! TD*
D18*
G04 #@! TO.N,GNDA*
X106045000Y-109220000D03*
D19*
X140970000Y-106680000D03*
X120396000Y-130556000D03*
X139065000Y-120650000D03*
X121920000Y-106680000D03*
X111760000Y-106680000D03*
D18*
X132080000Y-110490000D03*
D19*
X107950000Y-111125000D03*
X127000000Y-106680000D03*
X128905000Y-121285000D03*
D18*
X132080000Y-127000000D03*
D19*
X106680000Y-106680000D03*
X101600000Y-118745000D03*
X119380000Y-111760000D03*
X140970000Y-125730000D03*
X114935000Y-121920000D03*
X114300000Y-129540000D03*
X106680000Y-121920000D03*
X116840000Y-106680000D03*
X132080000Y-106680000D03*
X101600000Y-121920000D03*
X125730000Y-116840000D03*
X129413000Y-113030000D03*
X110490000Y-118110000D03*
G04 #@! TO.N,+9V*
X121920000Y-119380000D03*
X123063000Y-112776000D03*
X137160000Y-118745000D03*
X112395000Y-109855000D03*
X126746000Y-124968000D03*
G04 #@! TO.N,Net-(C9-Pad2)*
X116332000Y-116205000D03*
X120523000Y-113538000D03*
G04 #@! TO.N,Net-(C10-Pad2)*
X118618000Y-113792000D03*
X118618000Y-119761000D03*
G04 #@! TO.N,Net-(L1-Pad1)*
X107950000Y-118110000D03*
G04 #@! TD*
D20*
G04 #@! TO.N,+9V*
X123063000Y-112776000D02*
X121920000Y-112776000D01*
X137160000Y-118745000D02*
X136525000Y-119380000D01*
X120015000Y-109855000D02*
X112395000Y-109855000D01*
X121920000Y-123952000D02*
X121920000Y-119380000D01*
X121920000Y-112776000D02*
X121920000Y-111760000D01*
X122936000Y-124968000D02*
X121920000Y-123952000D01*
X136525000Y-119380000D02*
X121920000Y-119380000D01*
X121920000Y-111760000D02*
X120015000Y-109855000D01*
X121920000Y-119380000D02*
X121920000Y-112776000D01*
X126746000Y-124968000D02*
X122936000Y-124968000D01*
G04 #@! TO.N,Net-(C9-Pad2)*
X117475000Y-115062000D02*
X117475000Y-113538000D01*
X116332000Y-116205000D02*
X117475000Y-115062000D01*
X117475000Y-113538000D02*
X117983000Y-113030000D01*
X117983000Y-113030000D02*
X120015000Y-113030000D01*
X120015000Y-113030000D02*
X120523000Y-113538000D01*
G04 #@! TO.N,Net-(C10-Pad2)*
X118618000Y-119761000D02*
X118618000Y-113792000D01*
G04 #@! TO.N,Net-(L1-Pad1)*
X134620000Y-129453000D02*
X134533000Y-129540000D01*
X107950000Y-121920000D02*
X107950000Y-118110000D01*
X134065999Y-130007001D02*
X128737001Y-130007001D01*
X134533000Y-129540000D02*
X134065999Y-130007001D01*
X128737001Y-130007001D02*
X126532999Y-127802999D01*
X113832999Y-127802999D02*
X107950000Y-121920000D01*
X126532999Y-127802999D02*
X113832999Y-127802999D01*
X137033000Y-127040000D02*
X134620000Y-129453000D01*
G04 #@! TD*
G04 #@! TA.AperFunction,Conductor*
G04 #@! TO.N,GNDA*
G36*
X141674121Y-105938002D02*
G01*
X141720614Y-105991658D01*
X141732000Y-106044000D01*
X141732000Y-131446000D01*
X141711998Y-131514121D01*
X141658342Y-131560614D01*
X141606000Y-131572000D01*
X113120002Y-131572000D01*
X113051881Y-131551998D01*
X113005388Y-131498342D01*
X112995284Y-131428068D01*
X113010500Y-131383668D01*
X113052112Y-131310566D01*
X113054755Y-131305923D01*
X113133422Y-131089198D01*
X113174449Y-130862317D01*
X113175500Y-130840030D01*
X113175500Y-130699193D01*
X136238636Y-130699193D01*
X136244708Y-130707305D01*
X136376034Y-130790486D01*
X136385480Y-130795403D01*
X136596128Y-130883304D01*
X136606256Y-130886555D01*
X136828701Y-130937706D01*
X136839240Y-130939206D01*
X137067119Y-130952146D01*
X137077762Y-130951849D01*
X137304563Y-130926209D01*
X137314998Y-130924125D01*
X137534256Y-130860631D01*
X137544173Y-130856824D01*
X137749598Y-130757296D01*
X137758736Y-130751870D01*
X137818022Y-130709505D01*
X137826425Y-130698782D01*
X137819446Y-130685657D01*
X137045811Y-129912021D01*
X137031868Y-129904408D01*
X137030034Y-129904539D01*
X137023420Y-129908790D01*
X136245393Y-130686818D01*
X136238636Y-130699193D01*
X113175500Y-130699193D01*
X113175500Y-130175072D01*
X113163166Y-130029706D01*
X113161458Y-130009576D01*
X113161457Y-130009572D01*
X113161007Y-130004265D01*
X113156669Y-129987549D01*
X113110563Y-129809912D01*
X113103084Y-129781098D01*
X113088785Y-129749354D01*
X113010578Y-129575743D01*
X113010577Y-129575741D01*
X113008388Y-129570882D01*
X113003863Y-129564160D01*
X112886745Y-129390199D01*
X112879627Y-129379626D01*
X112843736Y-129342002D01*
X112756630Y-129250692D01*
X112720482Y-129212799D01*
X112535504Y-129075171D01*
X112530753Y-129072755D01*
X112530749Y-129072753D01*
X112334740Y-128973097D01*
X112334739Y-128973097D01*
X112329982Y-128970678D01*
X112192566Y-128928009D01*
X112114895Y-128903891D01*
X112114889Y-128903890D01*
X112109792Y-128902307D01*
X112004798Y-128888391D01*
X111886515Y-128872714D01*
X111886510Y-128872714D01*
X111881230Y-128872014D01*
X111875900Y-128872214D01*
X111875899Y-128872214D01*
X111766030Y-128876339D01*
X111650831Y-128880663D01*
X111425184Y-128928009D01*
X111423628Y-128928624D01*
X111353733Y-128929039D01*
X111293780Y-128891010D01*
X111263904Y-128826605D01*
X111266806Y-128775323D01*
X111309121Y-128617402D01*
X111309121Y-128617400D01*
X111310545Y-128612087D01*
X111330500Y-128384000D01*
X111310545Y-128155913D01*
X111254483Y-127946689D01*
X111252709Y-127940067D01*
X111252708Y-127940065D01*
X111251286Y-127934757D01*
X111240621Y-127911885D01*
X111156850Y-127732237D01*
X111156847Y-127732232D01*
X111154524Y-127727250D01*
X111084842Y-127627733D01*
X111026358Y-127544209D01*
X111026356Y-127544206D01*
X111023199Y-127539698D01*
X110861302Y-127377801D01*
X110856794Y-127374644D01*
X110856791Y-127374642D01*
X110678259Y-127249633D01*
X110678257Y-127249632D01*
X110673750Y-127246476D01*
X110668768Y-127244153D01*
X110668763Y-127244150D01*
X110471225Y-127152037D01*
X110471224Y-127152036D01*
X110466243Y-127149714D01*
X110460935Y-127148292D01*
X110460933Y-127148291D01*
X110250402Y-127091879D01*
X110250400Y-127091879D01*
X110245087Y-127090455D01*
X110145522Y-127081744D01*
X110076874Y-127075738D01*
X110076867Y-127075738D01*
X110074150Y-127075500D01*
X108959850Y-127075500D01*
X108957133Y-127075738D01*
X108957126Y-127075738D01*
X108888478Y-127081744D01*
X108788913Y-127090455D01*
X108783600Y-127091879D01*
X108783598Y-127091879D01*
X108573067Y-127148291D01*
X108573065Y-127148292D01*
X108567757Y-127149714D01*
X108562776Y-127152036D01*
X108562775Y-127152037D01*
X108365237Y-127244150D01*
X108365232Y-127244153D01*
X108360250Y-127246476D01*
X108355743Y-127249632D01*
X108355741Y-127249633D01*
X108177209Y-127374642D01*
X108177206Y-127374644D01*
X108172698Y-127377801D01*
X108010801Y-127539698D01*
X108007644Y-127544206D01*
X108007642Y-127544209D01*
X107949158Y-127627733D01*
X107879476Y-127727250D01*
X107877153Y-127732232D01*
X107877150Y-127732237D01*
X107793379Y-127911885D01*
X107782714Y-127934757D01*
X107781292Y-127940065D01*
X107781291Y-127940067D01*
X107779517Y-127946689D01*
X107723455Y-128155913D01*
X107703500Y-128384000D01*
X107723455Y-128612087D01*
X107724879Y-128617400D01*
X107724879Y-128617402D01*
X107778189Y-128816354D01*
X107782714Y-128833243D01*
X107785036Y-128838224D01*
X107785037Y-128838225D01*
X107877150Y-129035763D01*
X107877153Y-129035768D01*
X107879476Y-129040750D01*
X107882632Y-129045257D01*
X107882633Y-129045259D01*
X107999946Y-129212799D01*
X108010801Y-129228302D01*
X108172698Y-129390199D01*
X108177206Y-129393356D01*
X108177209Y-129393358D01*
X108272584Y-129460140D01*
X108360250Y-129521524D01*
X108365232Y-129523847D01*
X108365237Y-129523850D01*
X108562775Y-129615963D01*
X108567757Y-129618286D01*
X108573065Y-129619708D01*
X108573067Y-129619709D01*
X108783598Y-129676121D01*
X108783600Y-129676121D01*
X108788913Y-129677545D01*
X108888478Y-129686256D01*
X108957126Y-129692262D01*
X108957133Y-129692262D01*
X108959850Y-129692500D01*
X110074150Y-129692500D01*
X110076867Y-129692262D01*
X110076874Y-129692262D01*
X110145522Y-129686256D01*
X110245087Y-129677545D01*
X110250400Y-129676121D01*
X110250402Y-129676121D01*
X110375480Y-129642606D01*
X110446456Y-129644296D01*
X110505252Y-129684090D01*
X110533200Y-129749354D01*
X110526530Y-129807303D01*
X110514946Y-129839218D01*
X110500578Y-129878802D01*
X110499629Y-129884051D01*
X110499628Y-129884054D01*
X110495924Y-129904539D01*
X110459551Y-130105683D01*
X110458500Y-130127970D01*
X110458500Y-130792928D01*
X110462497Y-130840030D01*
X110472010Y-130952146D01*
X110472993Y-130963735D01*
X110530916Y-131186902D01*
X110619554Y-131383668D01*
X110624320Y-131394249D01*
X110634061Y-131464574D01*
X110604236Y-131529002D01*
X110544313Y-131567077D01*
X110509438Y-131572000D01*
X97154000Y-131572000D01*
X97085879Y-131551998D01*
X97039386Y-131498342D01*
X97028000Y-131446000D01*
X97028000Y-128451548D01*
X101159000Y-128451548D01*
X101159000Y-128740267D01*
X101159225Y-128745576D01*
X101173035Y-128908331D01*
X101174827Y-128918819D01*
X101230048Y-129131573D01*
X101233580Y-129141601D01*
X101323853Y-129342002D01*
X101329033Y-129351308D01*
X101451782Y-129533634D01*
X101458443Y-129541920D01*
X101610170Y-129700970D01*
X101618127Y-129708010D01*
X101794477Y-129839218D01*
X101803514Y-129844822D01*
X101999450Y-129944441D01*
X102009301Y-129948441D01*
X102219222Y-130013622D01*
X102229604Y-130015905D01*
X102245041Y-130017951D01*
X102259208Y-130015754D01*
X102263000Y-130002570D01*
X102263000Y-128456115D01*
X102261659Y-128451548D01*
X102771000Y-128451548D01*
X102771000Y-130000283D01*
X102774973Y-130013814D01*
X102785580Y-130015339D01*
X102903446Y-129990609D01*
X102913642Y-129987549D01*
X103118068Y-129906818D01*
X103127604Y-129902084D01*
X103315514Y-129788058D01*
X103324104Y-129781794D01*
X103490116Y-129637736D01*
X103497536Y-129630105D01*
X103636900Y-129460140D01*
X103642925Y-129451373D01*
X103751658Y-129260356D01*
X103756123Y-129250692D01*
X103831118Y-129044084D01*
X103833889Y-129033816D01*
X103873212Y-128816354D01*
X103874147Y-128808124D01*
X103874930Y-128791514D01*
X103875000Y-128788539D01*
X103875000Y-128456115D01*
X103870525Y-128440876D01*
X103869135Y-128439671D01*
X103861452Y-128438000D01*
X102789115Y-128438000D01*
X102773876Y-128442475D01*
X102772671Y-128443865D01*
X102771000Y-128451548D01*
X102261659Y-128451548D01*
X102258525Y-128440876D01*
X102257135Y-128439671D01*
X102249452Y-128438000D01*
X101177115Y-128438000D01*
X101161876Y-128442475D01*
X101160671Y-128443865D01*
X101159000Y-128451548D01*
X97028000Y-128451548D01*
X97028000Y-127579461D01*
X101159000Y-127579461D01*
X101159000Y-127911885D01*
X101163475Y-127927124D01*
X101164865Y-127928329D01*
X101172548Y-127930000D01*
X102244885Y-127930000D01*
X102260124Y-127925525D01*
X102261329Y-127924135D01*
X102263000Y-127916452D01*
X102263000Y-126367717D01*
X102262328Y-126365430D01*
X102771000Y-126365430D01*
X102771000Y-127911885D01*
X102775475Y-127927124D01*
X102776865Y-127928329D01*
X102784548Y-127930000D01*
X103856885Y-127930000D01*
X103872124Y-127925525D01*
X103873329Y-127924135D01*
X103875000Y-127916452D01*
X103875000Y-127627733D01*
X103874775Y-127622424D01*
X103860965Y-127459669D01*
X103859173Y-127449181D01*
X103803952Y-127236427D01*
X103800420Y-127226399D01*
X103710147Y-127025998D01*
X103704967Y-127016692D01*
X103582218Y-126834366D01*
X103575557Y-126826080D01*
X103423830Y-126667030D01*
X103415873Y-126659990D01*
X103239523Y-126528782D01*
X103230486Y-126523178D01*
X103034550Y-126423559D01*
X103024699Y-126419559D01*
X102814778Y-126354378D01*
X102804396Y-126352095D01*
X102788959Y-126350049D01*
X102774792Y-126352246D01*
X102771000Y-126365430D01*
X102262328Y-126365430D01*
X102259027Y-126354186D01*
X102248420Y-126352661D01*
X102130554Y-126377391D01*
X102120358Y-126380451D01*
X101915932Y-126461182D01*
X101906396Y-126465916D01*
X101718486Y-126579942D01*
X101709896Y-126586206D01*
X101543884Y-126730264D01*
X101536464Y-126737895D01*
X101397100Y-126907860D01*
X101391075Y-126916627D01*
X101282342Y-127107644D01*
X101277877Y-127117308D01*
X101202882Y-127323916D01*
X101200111Y-127334184D01*
X101160788Y-127551646D01*
X101159853Y-127559876D01*
X101159070Y-127576486D01*
X101159000Y-127579461D01*
X97028000Y-127579461D01*
X97028000Y-118110000D01*
X107036500Y-118110000D01*
X107056462Y-118299927D01*
X107115476Y-118481554D01*
X107210963Y-118646942D01*
X107215381Y-118651849D01*
X107215382Y-118651850D01*
X107284136Y-118728209D01*
X107314854Y-118792216D01*
X107316500Y-118812519D01*
X107316500Y-121841616D01*
X107315986Y-121852520D01*
X107314334Y-121859911D01*
X107314583Y-121867837D01*
X107314583Y-121867838D01*
X107316438Y-121926866D01*
X107316500Y-121930823D01*
X107316500Y-121959578D01*
X107316996Y-121963503D01*
X107316996Y-121963504D01*
X107317039Y-121963843D01*
X107317972Y-121975687D01*
X107319361Y-122019883D01*
X107321573Y-122027495D01*
X107325012Y-122039333D01*
X107329022Y-122058695D01*
X107331560Y-122078788D01*
X107334476Y-122086153D01*
X107334477Y-122086157D01*
X107347837Y-122119901D01*
X107351681Y-122131128D01*
X107364014Y-122173578D01*
X107368052Y-122180406D01*
X107374323Y-122191011D01*
X107383019Y-122208762D01*
X107387558Y-122220226D01*
X107390478Y-122227600D01*
X107395139Y-122234015D01*
X107416465Y-122263367D01*
X107422983Y-122273290D01*
X107445486Y-122311341D01*
X107445855Y-122311759D01*
X107459938Y-122325842D01*
X107472772Y-122340867D01*
X107484554Y-122357083D01*
X107518335Y-122385029D01*
X107527115Y-122393019D01*
X113329608Y-128195512D01*
X113336968Y-128203600D01*
X113341026Y-128209994D01*
X113346803Y-128215419D01*
X113389877Y-128255868D01*
X113392719Y-128258623D01*
X113413033Y-128278937D01*
X113416444Y-128281582D01*
X113425464Y-128289286D01*
X113457698Y-128319556D01*
X113464642Y-128323373D01*
X113464644Y-128323375D01*
X113475452Y-128329317D01*
X113491976Y-128340171D01*
X113507976Y-128352582D01*
X113515247Y-128355729D01*
X113515248Y-128355729D01*
X113548550Y-128370140D01*
X113559206Y-128375361D01*
X113597951Y-128396661D01*
X113605634Y-128398633D01*
X113605635Y-128398634D01*
X113617567Y-128401698D01*
X113636271Y-128408102D01*
X113647584Y-128412998D01*
X113647591Y-128413000D01*
X113654863Y-128416147D01*
X113662687Y-128417386D01*
X113662690Y-128417387D01*
X113698534Y-128423064D01*
X113710155Y-128425471D01*
X113747217Y-128434986D01*
X113752974Y-128436464D01*
X113753530Y-128436499D01*
X113773451Y-128436499D01*
X113793161Y-128438050D01*
X113805113Y-128439943D01*
X113805114Y-128439943D01*
X113812943Y-128441183D01*
X113820835Y-128440437D01*
X113828938Y-128439671D01*
X113856582Y-128437058D01*
X113868439Y-128436499D01*
X126218405Y-128436499D01*
X126286526Y-128456501D01*
X126307500Y-128473404D01*
X128233610Y-130399514D01*
X128240970Y-130407602D01*
X128245028Y-130413996D01*
X128250805Y-130419421D01*
X128293879Y-130459870D01*
X128296721Y-130462625D01*
X128317035Y-130482939D01*
X128320167Y-130485368D01*
X128320171Y-130485372D01*
X128320443Y-130485583D01*
X128329470Y-130493292D01*
X128361700Y-130523558D01*
X128379459Y-130533321D01*
X128395966Y-130544164D01*
X128411978Y-130556585D01*
X128419255Y-130559734D01*
X128452552Y-130574143D01*
X128463212Y-130579365D01*
X128495011Y-130596847D01*
X128495014Y-130596848D01*
X128501953Y-130600663D01*
X128521573Y-130605701D01*
X128540265Y-130612100D01*
X128558866Y-130620149D01*
X128566693Y-130621389D01*
X128566694Y-130621389D01*
X128602532Y-130627065D01*
X128614155Y-130629472D01*
X128656976Y-130640466D01*
X128657532Y-130640501D01*
X128677448Y-130640501D01*
X128697158Y-130642052D01*
X128716946Y-130645186D01*
X128724838Y-130644440D01*
X128760594Y-130641060D01*
X128772452Y-130640501D01*
X133987615Y-130640501D01*
X133998519Y-130641015D01*
X134005910Y-130642667D01*
X134013836Y-130642418D01*
X134013837Y-130642418D01*
X134072865Y-130640563D01*
X134076822Y-130640501D01*
X134105577Y-130640501D01*
X134109844Y-130639962D01*
X134121686Y-130639029D01*
X134153334Y-130638034D01*
X134157959Y-130637889D01*
X134165882Y-130637640D01*
X134185333Y-130631989D01*
X134204694Y-130627979D01*
X134207419Y-130627635D01*
X134216929Y-130626434D01*
X134216932Y-130626433D01*
X134224787Y-130625441D01*
X134232152Y-130622525D01*
X134232156Y-130622524D01*
X134265900Y-130609164D01*
X134277129Y-130605319D01*
X134286378Y-130602632D01*
X134319577Y-130592987D01*
X134326405Y-130588949D01*
X134337010Y-130582678D01*
X134354761Y-130573982D01*
X134366225Y-130569443D01*
X134366228Y-130569441D01*
X134373599Y-130566523D01*
X134409367Y-130540536D01*
X134419290Y-130534017D01*
X134430525Y-130527373D01*
X134457340Y-130511515D01*
X134457758Y-130511146D01*
X134471841Y-130497063D01*
X134486866Y-130484229D01*
X134503082Y-130472447D01*
X134531029Y-130438665D01*
X134539018Y-130429886D01*
X135409194Y-129559710D01*
X135471506Y-129525684D01*
X135542321Y-129530749D01*
X135599157Y-129573296D01*
X135623935Y-129639362D01*
X135624826Y-129651215D01*
X135661124Y-129876574D01*
X135663695Y-129886883D01*
X135737445Y-130102903D01*
X135741719Y-130112639D01*
X135850809Y-130313140D01*
X135856664Y-130322020D01*
X135860923Y-130327422D01*
X135872848Y-130335893D01*
X135884382Y-130329407D01*
X136672658Y-129541132D01*
X137397408Y-129541132D01*
X137397539Y-129542966D01*
X137401790Y-129549580D01*
X138179057Y-130326846D01*
X138190844Y-130333282D01*
X138202839Y-130324010D01*
X138251156Y-130255135D01*
X138256505Y-130245944D01*
X138354233Y-130039666D01*
X138357957Y-130029706D01*
X138419531Y-129809912D01*
X138421526Y-129799456D01*
X138445432Y-129570076D01*
X138445768Y-129564160D01*
X138445972Y-129542963D01*
X138445750Y-129537052D01*
X138426250Y-129307236D01*
X138424460Y-129296764D01*
X138367116Y-129075827D01*
X138363581Y-129065787D01*
X138269832Y-128857674D01*
X138264661Y-128848383D01*
X138202018Y-128755336D01*
X138192012Y-128747032D01*
X138177954Y-128754257D01*
X137405021Y-129527189D01*
X137397408Y-129541132D01*
X136672658Y-129541132D01*
X137033000Y-129180790D01*
X137820454Y-128393335D01*
X137827183Y-128381013D01*
X137817935Y-128368697D01*
X137793027Y-128302213D01*
X137808017Y-128232817D01*
X137845434Y-128190527D01*
X137949117Y-128116434D01*
X138117388Y-127946689D01*
X138133210Y-127924135D01*
X138251588Y-127755387D01*
X138251589Y-127755385D01*
X138254652Y-127751019D01*
X138356986Y-127535018D01*
X138421463Y-127304863D01*
X138424401Y-127276681D01*
X138445933Y-127070083D01*
X138445933Y-127070080D01*
X138446240Y-127067136D01*
X138446373Y-127053306D01*
X138446472Y-127042962D01*
X138446472Y-127042954D01*
X138446500Y-127040000D01*
X138426292Y-126801840D01*
X138409695Y-126737895D01*
X138367586Y-126575655D01*
X138367584Y-126575650D01*
X138366245Y-126570490D01*
X138308577Y-126442472D01*
X138270267Y-126357426D01*
X138270266Y-126357423D01*
X138268077Y-126352565D01*
X138134594Y-126154296D01*
X137969613Y-125981351D01*
X137965340Y-125978172D01*
X137965330Y-125978163D01*
X137848023Y-125890885D01*
X137805309Y-125834175D01*
X137800036Y-125763374D01*
X137833878Y-125700963D01*
X137849977Y-125687282D01*
X137944764Y-125619546D01*
X137944773Y-125619538D01*
X137949117Y-125616434D01*
X138051925Y-125512725D01*
X138113635Y-125450475D01*
X138113636Y-125450474D01*
X138117388Y-125446689D01*
X138254652Y-125251019D01*
X138356986Y-125035018D01*
X138421463Y-124804863D01*
X138438023Y-124645982D01*
X138445933Y-124570083D01*
X138445933Y-124570080D01*
X138446240Y-124567136D01*
X138446500Y-124540000D01*
X138426292Y-124301840D01*
X138413415Y-124252226D01*
X138367586Y-124075655D01*
X138367584Y-124075650D01*
X138366245Y-124070490D01*
X138268077Y-123852565D01*
X138134594Y-123654296D01*
X137969613Y-123481351D01*
X137777852Y-123338677D01*
X137773101Y-123336261D01*
X137773097Y-123336259D01*
X137569549Y-123232770D01*
X137569548Y-123232770D01*
X137564793Y-123230352D01*
X137336528Y-123159474D01*
X137315210Y-123156648D01*
X137104868Y-123128769D01*
X137104865Y-123128769D01*
X137099585Y-123128069D01*
X137094256Y-123128269D01*
X137094255Y-123128269D01*
X136997684Y-123131895D01*
X136860738Y-123137036D01*
X136774316Y-123155169D01*
X136632043Y-123185021D01*
X136632040Y-123185022D01*
X136626816Y-123186118D01*
X136404508Y-123273911D01*
X136399944Y-123276680D01*
X136399945Y-123276680D01*
X136204732Y-123395138D01*
X136204729Y-123395140D01*
X136200171Y-123397906D01*
X136019647Y-123554557D01*
X136016264Y-123558683D01*
X136016259Y-123558688D01*
X135937866Y-123654296D01*
X135868098Y-123739385D01*
X135749857Y-123947104D01*
X135668304Y-124171777D01*
X135667355Y-124177025D01*
X135645553Y-124297595D01*
X135625773Y-124406978D01*
X135625722Y-124412318D01*
X135624525Y-124537052D01*
X135623479Y-124645982D01*
X135624328Y-124651252D01*
X135624328Y-124651254D01*
X135649070Y-124804863D01*
X135661487Y-124881957D01*
X135663212Y-124887009D01*
X135663212Y-124887010D01*
X135711989Y-125029881D01*
X135738711Y-125108153D01*
X135852943Y-125318105D01*
X136000916Y-125505807D01*
X136178399Y-125665895D01*
X136182913Y-125668754D01*
X136204450Y-125682396D01*
X136251294Y-125735745D01*
X136261860Y-125805951D01*
X136232791Y-125870724D01*
X136208557Y-125891316D01*
X136209049Y-125891990D01*
X136204733Y-125895137D01*
X136200171Y-125897906D01*
X136019647Y-126054557D01*
X136016264Y-126058683D01*
X136016259Y-126058688D01*
X135937866Y-126154296D01*
X135868098Y-126239385D01*
X135749857Y-126447104D01*
X135668304Y-126671777D01*
X135625773Y-126906978D01*
X135624720Y-127016692D01*
X135623608Y-127132594D01*
X135623479Y-127145982D01*
X135624328Y-127151252D01*
X135624328Y-127151254D01*
X135660309Y-127374642D01*
X135661487Y-127381957D01*
X135663212Y-127387009D01*
X135663212Y-127387010D01*
X135670139Y-127407299D01*
X135673219Y-127478228D01*
X135639992Y-127537104D01*
X134228271Y-128948825D01*
X134228241Y-128948854D01*
X134141241Y-129035855D01*
X133840500Y-129336596D01*
X133778188Y-129370621D01*
X133751404Y-129373501D01*
X129051596Y-129373501D01*
X128983475Y-129353499D01*
X128962501Y-129336596D01*
X127036390Y-127410486D01*
X127029030Y-127402398D01*
X127024972Y-127396004D01*
X127004403Y-127376688D01*
X126976121Y-127350130D01*
X126973279Y-127347375D01*
X126952965Y-127327061D01*
X126949554Y-127324416D01*
X126940532Y-127316710D01*
X126933383Y-127309996D01*
X126908300Y-127286442D01*
X126901356Y-127282625D01*
X126901354Y-127282623D01*
X126890546Y-127276681D01*
X126874022Y-127265827D01*
X126864285Y-127258274D01*
X126864284Y-127258274D01*
X126858022Y-127253416D01*
X126817446Y-127235857D01*
X126806789Y-127230636D01*
X126799082Y-127226399D01*
X126768047Y-127209337D01*
X126760364Y-127207365D01*
X126760363Y-127207364D01*
X126748431Y-127204300D01*
X126729727Y-127197896D01*
X126718414Y-127193000D01*
X126718407Y-127192998D01*
X126711135Y-127189851D01*
X126703311Y-127188612D01*
X126703308Y-127188611D01*
X126667464Y-127182934D01*
X126655843Y-127180527D01*
X126618781Y-127171012D01*
X126618780Y-127171012D01*
X126613024Y-127169534D01*
X126612468Y-127169499D01*
X126592547Y-127169499D01*
X126572837Y-127167948D01*
X126560885Y-127166055D01*
X126560884Y-127166055D01*
X126553055Y-127164815D01*
X126545163Y-127165561D01*
X126509417Y-127168940D01*
X126497559Y-127169499D01*
X126203500Y-127169499D01*
X126135379Y-127149497D01*
X126088886Y-127095841D01*
X126077500Y-127043499D01*
X126077500Y-125852557D01*
X126097502Y-125784436D01*
X126151158Y-125737943D01*
X126221432Y-125727839D01*
X126277563Y-125750623D01*
X126283906Y-125755232D01*
X126283908Y-125755233D01*
X126289250Y-125759114D01*
X126295278Y-125761798D01*
X126295280Y-125761799D01*
X126457682Y-125834105D01*
X126463713Y-125836790D01*
X126557113Y-125856643D01*
X126644056Y-125875124D01*
X126644061Y-125875124D01*
X126650513Y-125876496D01*
X126841487Y-125876496D01*
X126847939Y-125875124D01*
X126847944Y-125875124D01*
X126934887Y-125856643D01*
X127028287Y-125836790D01*
X127034318Y-125834105D01*
X127196720Y-125761799D01*
X127196722Y-125761798D01*
X127202750Y-125759114D01*
X127246263Y-125727500D01*
X127351907Y-125650746D01*
X127351909Y-125650744D01*
X127357251Y-125646863D01*
X127384649Y-125616434D01*
X127480618Y-125509850D01*
X127480619Y-125509849D01*
X127485037Y-125504942D01*
X127580524Y-125339554D01*
X127639538Y-125157927D01*
X127644770Y-125108153D01*
X127658810Y-124974565D01*
X127659500Y-124968000D01*
X127639538Y-124778073D01*
X127580524Y-124596446D01*
X127485037Y-124431058D01*
X127479600Y-124425019D01*
X127361673Y-124294048D01*
X127361672Y-124294047D01*
X127357251Y-124289137D01*
X127351909Y-124285256D01*
X127351907Y-124285254D01*
X127208092Y-124180767D01*
X127208091Y-124180766D01*
X127202750Y-124176886D01*
X127196722Y-124174202D01*
X127196720Y-124174201D01*
X127034318Y-124101895D01*
X127034317Y-124101895D01*
X127028287Y-124099210D01*
X126917471Y-124075655D01*
X126847944Y-124060876D01*
X126847939Y-124060876D01*
X126841487Y-124059504D01*
X126650513Y-124059504D01*
X126644061Y-124060876D01*
X126644056Y-124060876D01*
X126574529Y-124075655D01*
X126463713Y-124099210D01*
X126457683Y-124101895D01*
X126457682Y-124101895D01*
X126295280Y-124174201D01*
X126295278Y-124174202D01*
X126289250Y-124176886D01*
X126283909Y-124180766D01*
X126283908Y-124180767D01*
X126140093Y-124285254D01*
X126140091Y-124285256D01*
X126134749Y-124289137D01*
X126130328Y-124294047D01*
X126125425Y-124298462D01*
X126124299Y-124297211D01*
X126071000Y-124330049D01*
X126037806Y-124334500D01*
X123250594Y-124334500D01*
X123182473Y-124314498D01*
X123161499Y-124297595D01*
X122590405Y-123726501D01*
X122556379Y-123664189D01*
X122553500Y-123637406D01*
X122553500Y-120139500D01*
X122573502Y-120071379D01*
X122627158Y-120024886D01*
X122679500Y-120013500D01*
X136446616Y-120013500D01*
X136457520Y-120014014D01*
X136464911Y-120015666D01*
X136472837Y-120015417D01*
X136472838Y-120015417D01*
X136531866Y-120013562D01*
X136535823Y-120013500D01*
X136564578Y-120013500D01*
X136568845Y-120012961D01*
X136580687Y-120012028D01*
X136612335Y-120011033D01*
X136616960Y-120010888D01*
X136624883Y-120010639D01*
X136644334Y-120004988D01*
X136663695Y-120000978D01*
X136666420Y-120000634D01*
X136675930Y-119999433D01*
X136675933Y-119999432D01*
X136683788Y-119998440D01*
X136691153Y-119995524D01*
X136691157Y-119995523D01*
X136724901Y-119982163D01*
X136736130Y-119978318D01*
X136778578Y-119965986D01*
X136785406Y-119961948D01*
X136796011Y-119955677D01*
X136813762Y-119946981D01*
X136825226Y-119942442D01*
X136825229Y-119942440D01*
X136832600Y-119939522D01*
X136868368Y-119913535D01*
X136878291Y-119907016D01*
X136887439Y-119901606D01*
X136916341Y-119884514D01*
X136916759Y-119884145D01*
X136930842Y-119870062D01*
X136945867Y-119857228D01*
X136962083Y-119845446D01*
X136990030Y-119811664D01*
X136998019Y-119802885D01*
X137110503Y-119690401D01*
X137172815Y-119656375D01*
X137199598Y-119653496D01*
X137255487Y-119653496D01*
X137261939Y-119652124D01*
X137261944Y-119652124D01*
X137348887Y-119633643D01*
X137442287Y-119613790D01*
X137555548Y-119563363D01*
X137610720Y-119538799D01*
X137610722Y-119538798D01*
X137616750Y-119536114D01*
X137622092Y-119532233D01*
X137765907Y-119427746D01*
X137765909Y-119427744D01*
X137771251Y-119423863D01*
X137810745Y-119380000D01*
X137894618Y-119286850D01*
X137894619Y-119286849D01*
X137899037Y-119281942D01*
X137994524Y-119116554D01*
X138053538Y-118934927D01*
X138073500Y-118745000D01*
X138053538Y-118555073D01*
X137994524Y-118373446D01*
X137899037Y-118208058D01*
X137816657Y-118116565D01*
X137775673Y-118071048D01*
X137775672Y-118071047D01*
X137771251Y-118066137D01*
X137765909Y-118062256D01*
X137765907Y-118062254D01*
X137622092Y-117957767D01*
X137622091Y-117957766D01*
X137616750Y-117953886D01*
X137610722Y-117951202D01*
X137610720Y-117951201D01*
X137448318Y-117878895D01*
X137448317Y-117878895D01*
X137442287Y-117876210D01*
X137348887Y-117856357D01*
X137261944Y-117837876D01*
X137261939Y-117837876D01*
X137255487Y-117836504D01*
X137064513Y-117836504D01*
X137058061Y-117837876D01*
X137058056Y-117837876D01*
X136971113Y-117856357D01*
X136877713Y-117876210D01*
X136871683Y-117878895D01*
X136871682Y-117878895D01*
X136709280Y-117951201D01*
X136709278Y-117951202D01*
X136703250Y-117953886D01*
X136697909Y-117957766D01*
X136697908Y-117957767D01*
X136554093Y-118062254D01*
X136554091Y-118062256D01*
X136548749Y-118066137D01*
X136544328Y-118071047D01*
X136544327Y-118071048D01*
X136503344Y-118116565D01*
X136420963Y-118208058D01*
X136325476Y-118373446D01*
X136266462Y-118555073D01*
X136265772Y-118561636D01*
X136265772Y-118561637D01*
X136258201Y-118633671D01*
X136231188Y-118699327D01*
X136172966Y-118739957D01*
X136132891Y-118746500D01*
X122679500Y-118746500D01*
X122611379Y-118726498D01*
X122564886Y-118672842D01*
X122553500Y-118620500D01*
X122553500Y-114062193D01*
X136492636Y-114062193D01*
X136498708Y-114070305D01*
X136630034Y-114153486D01*
X136639480Y-114158403D01*
X136850128Y-114246304D01*
X136860256Y-114249555D01*
X137082701Y-114300706D01*
X137093240Y-114302206D01*
X137321119Y-114315146D01*
X137331762Y-114314849D01*
X137558563Y-114289209D01*
X137568998Y-114287125D01*
X137788256Y-114223631D01*
X137798173Y-114219824D01*
X138003598Y-114120296D01*
X138012736Y-114114870D01*
X138072022Y-114072505D01*
X138080425Y-114061782D01*
X138073446Y-114048657D01*
X137299811Y-113275021D01*
X137285868Y-113267408D01*
X137284034Y-113267539D01*
X137277420Y-113271790D01*
X136499393Y-114049818D01*
X136492636Y-114062193D01*
X122553500Y-114062193D01*
X122553500Y-113737652D01*
X122573502Y-113669531D01*
X122627158Y-113623038D01*
X122697432Y-113612934D01*
X122730748Y-113622545D01*
X122774678Y-113642104D01*
X122774686Y-113642107D01*
X122780713Y-113644790D01*
X122868736Y-113663500D01*
X122961056Y-113683124D01*
X122961061Y-113683124D01*
X122967513Y-113684496D01*
X123158487Y-113684496D01*
X123164939Y-113683124D01*
X123164944Y-113683124D01*
X123257264Y-113663500D01*
X123345287Y-113644790D01*
X123395250Y-113622545D01*
X123513720Y-113569799D01*
X123513722Y-113569798D01*
X123519750Y-113567114D01*
X123587427Y-113517944D01*
X123668907Y-113458746D01*
X123668909Y-113458744D01*
X123674251Y-113454863D01*
X123759788Y-113359864D01*
X123797618Y-113317850D01*
X123797619Y-113317849D01*
X123802037Y-113312942D01*
X123897524Y-113147554D01*
X123944296Y-113003603D01*
X135878028Y-113003603D01*
X135878826Y-113014216D01*
X135915124Y-113239574D01*
X135917695Y-113249883D01*
X135991445Y-113465903D01*
X135995719Y-113475639D01*
X136104809Y-113676140D01*
X136110664Y-113685020D01*
X136114923Y-113690422D01*
X136126849Y-113698893D01*
X136138382Y-113692407D01*
X136914979Y-112915811D01*
X136921356Y-112904132D01*
X137651408Y-112904132D01*
X137651539Y-112905966D01*
X137655790Y-112912580D01*
X138433057Y-113689846D01*
X138444844Y-113696282D01*
X138456839Y-113687010D01*
X138505156Y-113618135D01*
X138510505Y-113608944D01*
X138608233Y-113402666D01*
X138611957Y-113392706D01*
X138673531Y-113172912D01*
X138675526Y-113162456D01*
X138699432Y-112933076D01*
X138699768Y-112927160D01*
X138699972Y-112905963D01*
X138699750Y-112900052D01*
X138680250Y-112670236D01*
X138678460Y-112659764D01*
X138621116Y-112438827D01*
X138617581Y-112428787D01*
X138523832Y-112220674D01*
X138518661Y-112211383D01*
X138456018Y-112118336D01*
X138446012Y-112110032D01*
X138431954Y-112117257D01*
X137659021Y-112890189D01*
X137651408Y-112904132D01*
X136921356Y-112904132D01*
X136922592Y-112901868D01*
X136922461Y-112900034D01*
X136918210Y-112893420D01*
X136137547Y-112112758D01*
X136124366Y-112105560D01*
X136118462Y-112109779D01*
X136006951Y-112305674D01*
X136002488Y-112315334D01*
X135924608Y-112529891D01*
X135921837Y-112540159D01*
X135881221Y-112764771D01*
X135880220Y-112775364D01*
X135878028Y-113003603D01*
X123944296Y-113003603D01*
X123956538Y-112965927D01*
X123962841Y-112905963D01*
X123975810Y-112782565D01*
X123976500Y-112776000D01*
X123960420Y-112623005D01*
X123957228Y-112592637D01*
X123957228Y-112592636D01*
X123956538Y-112586073D01*
X123952738Y-112574376D01*
X123899566Y-112410731D01*
X123897524Y-112404446D01*
X123893788Y-112397974D01*
X123805338Y-112244776D01*
X123802037Y-112239058D01*
X123777119Y-112211383D01*
X123678673Y-112102048D01*
X123678672Y-112102047D01*
X123674251Y-112097137D01*
X123668909Y-112093256D01*
X123668907Y-112093254D01*
X123525092Y-111988767D01*
X123525091Y-111988766D01*
X123519750Y-111984886D01*
X123513722Y-111982202D01*
X123513720Y-111982201D01*
X123351318Y-111909895D01*
X123351317Y-111909895D01*
X123345287Y-111907210D01*
X123251887Y-111887357D01*
X123164944Y-111868876D01*
X123164939Y-111868876D01*
X123158487Y-111867504D01*
X122967513Y-111867504D01*
X122961061Y-111868876D01*
X122961056Y-111868876D01*
X122874113Y-111887357D01*
X122780713Y-111907210D01*
X122774683Y-111909895D01*
X122774682Y-111909895D01*
X122732769Y-111928556D01*
X122662402Y-111937990D01*
X122598105Y-111907884D01*
X122560291Y-111847795D01*
X122555582Y-111817407D01*
X122553562Y-111753135D01*
X122553500Y-111749177D01*
X122553500Y-111720422D01*
X122552961Y-111716155D01*
X122552027Y-111704305D01*
X122550888Y-111668042D01*
X122550639Y-111660117D01*
X122544987Y-111640661D01*
X122540978Y-111621302D01*
X122539434Y-111609079D01*
X122539434Y-111609078D01*
X122538440Y-111601212D01*
X122533230Y-111588054D01*
X122522168Y-111560111D01*
X122518323Y-111548882D01*
X122508199Y-111514035D01*
X122508198Y-111514034D01*
X122505987Y-111506422D01*
X122495674Y-111488983D01*
X122486978Y-111471231D01*
X122482442Y-111459775D01*
X122479522Y-111452400D01*
X122453533Y-111416629D01*
X122447016Y-111406708D01*
X122427548Y-111373790D01*
X122424514Y-111368659D01*
X122424145Y-111368241D01*
X122410062Y-111354158D01*
X122397228Y-111339133D01*
X122385446Y-111322917D01*
X122351664Y-111294970D01*
X122342885Y-111286981D01*
X120518391Y-109462487D01*
X120511031Y-109454399D01*
X120506973Y-109448005D01*
X120458121Y-109402130D01*
X120455280Y-109399376D01*
X120434966Y-109379062D01*
X120431555Y-109376417D01*
X120422533Y-109368711D01*
X120396077Y-109343867D01*
X120390301Y-109338443D01*
X120383357Y-109334626D01*
X120383355Y-109334624D01*
X120372547Y-109328682D01*
X120356023Y-109317828D01*
X120346286Y-109310275D01*
X120346285Y-109310275D01*
X120340023Y-109305417D01*
X120299447Y-109287858D01*
X120288790Y-109282637D01*
X120250048Y-109261338D01*
X120242365Y-109259366D01*
X120242364Y-109259365D01*
X120230432Y-109256301D01*
X120211728Y-109249897D01*
X120200415Y-109245001D01*
X120200408Y-109244999D01*
X120193136Y-109241852D01*
X120185312Y-109240613D01*
X120185309Y-109240612D01*
X120149465Y-109234935D01*
X120137844Y-109232528D01*
X120100782Y-109223013D01*
X120100781Y-109223013D01*
X120095025Y-109221535D01*
X120094469Y-109221500D01*
X120074548Y-109221500D01*
X120054838Y-109219949D01*
X120042886Y-109218056D01*
X120042885Y-109218056D01*
X120035056Y-109216816D01*
X120027164Y-109217562D01*
X119991418Y-109220941D01*
X119979560Y-109221500D01*
X113103194Y-109221500D01*
X113035073Y-109201498D01*
X113015849Y-109185158D01*
X113015575Y-109185462D01*
X113010672Y-109181047D01*
X113006251Y-109176137D01*
X113000909Y-109172256D01*
X113000907Y-109172254D01*
X112857092Y-109067767D01*
X112857091Y-109067766D01*
X112851750Y-109063886D01*
X112845722Y-109061202D01*
X112845720Y-109061201D01*
X112683318Y-108988895D01*
X112683317Y-108988895D01*
X112677287Y-108986210D01*
X112583887Y-108966357D01*
X112496944Y-108947876D01*
X112496939Y-108947876D01*
X112490487Y-108946504D01*
X112299513Y-108946504D01*
X112293061Y-108947876D01*
X112293056Y-108947876D01*
X112206113Y-108966357D01*
X112112713Y-108986210D01*
X112106683Y-108988895D01*
X112106682Y-108988895D01*
X111944280Y-109061201D01*
X111944278Y-109061202D01*
X111938250Y-109063886D01*
X111932909Y-109067766D01*
X111932908Y-109067767D01*
X111789093Y-109172254D01*
X111789091Y-109172256D01*
X111783749Y-109176137D01*
X111779328Y-109181047D01*
X111779327Y-109181048D01*
X111670179Y-109302270D01*
X111655963Y-109318058D01*
X111560476Y-109483446D01*
X111558434Y-109489731D01*
X111521831Y-109602385D01*
X111501462Y-109665073D01*
X111481500Y-109855000D01*
X111501462Y-110044927D01*
X111560476Y-110226554D01*
X111563779Y-110232276D01*
X111563780Y-110232277D01*
X111585547Y-110269978D01*
X111655963Y-110391942D01*
X111660381Y-110396849D01*
X111660382Y-110396850D01*
X111687684Y-110427172D01*
X111783749Y-110533863D01*
X111789091Y-110537744D01*
X111789093Y-110537746D01*
X111932908Y-110642233D01*
X111938250Y-110646114D01*
X111944278Y-110648798D01*
X111944280Y-110648799D01*
X112106682Y-110721105D01*
X112112713Y-110723790D01*
X112206113Y-110743643D01*
X112293056Y-110762124D01*
X112293061Y-110762124D01*
X112299513Y-110763496D01*
X112490487Y-110763496D01*
X112496939Y-110762124D01*
X112496944Y-110762124D01*
X112583887Y-110743643D01*
X112677287Y-110723790D01*
X112683318Y-110721105D01*
X112845720Y-110648799D01*
X112845722Y-110648798D01*
X112851750Y-110646114D01*
X112857092Y-110642233D01*
X113000907Y-110537746D01*
X113000909Y-110537744D01*
X113006251Y-110533863D01*
X113010673Y-110528952D01*
X113015575Y-110524538D01*
X113016701Y-110525789D01*
X113070000Y-110492951D01*
X113103194Y-110488500D01*
X119700406Y-110488500D01*
X119768527Y-110508502D01*
X119789501Y-110525405D01*
X121249595Y-111985499D01*
X121283621Y-112047811D01*
X121286500Y-112074594D01*
X121286500Y-112704393D01*
X121284268Y-112728001D01*
X121282760Y-112735908D01*
X121282760Y-112735909D01*
X121281719Y-112735710D01*
X121259955Y-112795617D01*
X121203485Y-112838648D01*
X121132715Y-112844317D01*
X121084387Y-112822909D01*
X120979750Y-112746886D01*
X120973722Y-112744202D01*
X120973720Y-112744201D01*
X120811318Y-112671895D01*
X120811317Y-112671895D01*
X120805287Y-112669210D01*
X120711887Y-112649357D01*
X120624944Y-112630876D01*
X120624939Y-112630876D01*
X120618487Y-112629504D01*
X120563781Y-112629504D01*
X120495660Y-112609502D01*
X120477529Y-112595355D01*
X120458123Y-112577132D01*
X120455280Y-112574376D01*
X120434966Y-112554062D01*
X120431555Y-112551417D01*
X120422533Y-112543711D01*
X120416943Y-112538461D01*
X120390301Y-112513443D01*
X120383357Y-112509626D01*
X120383355Y-112509624D01*
X120372547Y-112503682D01*
X120356023Y-112492828D01*
X120346286Y-112485275D01*
X120346285Y-112485275D01*
X120340023Y-112480417D01*
X120327827Y-112475139D01*
X120310317Y-112467562D01*
X120299447Y-112462858D01*
X120288790Y-112457637D01*
X120282764Y-112454324D01*
X120250048Y-112436338D01*
X120242365Y-112434366D01*
X120242364Y-112434365D01*
X120230432Y-112431301D01*
X120211728Y-112424897D01*
X120200415Y-112420001D01*
X120200408Y-112419999D01*
X120193136Y-112416852D01*
X120185312Y-112415613D01*
X120185309Y-112415612D01*
X120149465Y-112409935D01*
X120137844Y-112407528D01*
X120100782Y-112398013D01*
X120100781Y-112398013D01*
X120095025Y-112396535D01*
X120094469Y-112396500D01*
X120074548Y-112396500D01*
X120054838Y-112394949D01*
X120042886Y-112393056D01*
X120042885Y-112393056D01*
X120035056Y-112391816D01*
X120027164Y-112392562D01*
X119991418Y-112395941D01*
X119979560Y-112396500D01*
X118061383Y-112396500D01*
X118050479Y-112395986D01*
X118043088Y-112394334D01*
X118035163Y-112394583D01*
X118035162Y-112394583D01*
X117976147Y-112396438D01*
X117972189Y-112396500D01*
X117943422Y-112396500D01*
X117939498Y-112396996D01*
X117939496Y-112396996D01*
X117939148Y-112397040D01*
X117927302Y-112397973D01*
X117883117Y-112399362D01*
X117863661Y-112405014D01*
X117844321Y-112409019D01*
X117824212Y-112411560D01*
X117816840Y-112414479D01*
X117816835Y-112414480D01*
X117783101Y-112427836D01*
X117771872Y-112431681D01*
X117742694Y-112440158D01*
X117729421Y-112444014D01*
X117711988Y-112454324D01*
X117694241Y-112463018D01*
X117675400Y-112470478D01*
X117668985Y-112475139D01*
X117639629Y-112496467D01*
X117629712Y-112502982D01*
X117591658Y-112525487D01*
X117591241Y-112525855D01*
X117577158Y-112539938D01*
X117562133Y-112552772D01*
X117545917Y-112564554D01*
X117528115Y-112586073D01*
X117517971Y-112598335D01*
X117509981Y-112607115D01*
X117082487Y-113034609D01*
X117074399Y-113041969D01*
X117068005Y-113046027D01*
X117062580Y-113051804D01*
X117022131Y-113094878D01*
X117019376Y-113097720D01*
X116999062Y-113118034D01*
X116996417Y-113121445D01*
X116988713Y-113130465D01*
X116958443Y-113162699D01*
X116954626Y-113169643D01*
X116954624Y-113169645D01*
X116948682Y-113180453D01*
X116937828Y-113196977D01*
X116925417Y-113212977D01*
X116922270Y-113220248D01*
X116922270Y-113220249D01*
X116907859Y-113253551D01*
X116902638Y-113264207D01*
X116881338Y-113302952D01*
X116879366Y-113310635D01*
X116879365Y-113310636D01*
X116876301Y-113322568D01*
X116869897Y-113341272D01*
X116865001Y-113352585D01*
X116864999Y-113352592D01*
X116861852Y-113359864D01*
X116860613Y-113367688D01*
X116860612Y-113367691D01*
X116854935Y-113403535D01*
X116852528Y-113415156D01*
X116843595Y-113449952D01*
X116841535Y-113457975D01*
X116841500Y-113458531D01*
X116841500Y-113478452D01*
X116839949Y-113498162D01*
X116836816Y-113517944D01*
X116837562Y-113525836D01*
X116840941Y-113561582D01*
X116841500Y-113573440D01*
X116841500Y-114747406D01*
X116821498Y-114815527D01*
X116804595Y-114836501D01*
X116381497Y-115259599D01*
X116319185Y-115293625D01*
X116292402Y-115296504D01*
X116236513Y-115296504D01*
X116230061Y-115297876D01*
X116230056Y-115297876D01*
X116143113Y-115316357D01*
X116049713Y-115336210D01*
X116043683Y-115338895D01*
X116043682Y-115338895D01*
X115881280Y-115411201D01*
X115881278Y-115411202D01*
X115875250Y-115413886D01*
X115869909Y-115417766D01*
X115869908Y-115417767D01*
X115726093Y-115522254D01*
X115726091Y-115522256D01*
X115720749Y-115526137D01*
X115592963Y-115668058D01*
X115497476Y-115833446D01*
X115438462Y-116015073D01*
X115418500Y-116205000D01*
X115438462Y-116394927D01*
X115497476Y-116576554D01*
X115592963Y-116741942D01*
X115720749Y-116883863D01*
X115726091Y-116887744D01*
X115726093Y-116887746D01*
X115869908Y-116992233D01*
X115875250Y-116996114D01*
X115881278Y-116998798D01*
X115881280Y-116998799D01*
X116043682Y-117071105D01*
X116049713Y-117073790D01*
X116143113Y-117093643D01*
X116230056Y-117112124D01*
X116230061Y-117112124D01*
X116236513Y-117113496D01*
X116427487Y-117113496D01*
X116433939Y-117112124D01*
X116433944Y-117112124D01*
X116520887Y-117093643D01*
X116614287Y-117073790D01*
X116620318Y-117071105D01*
X116782720Y-116998799D01*
X116782722Y-116998798D01*
X116788750Y-116996114D01*
X116794092Y-116992233D01*
X116937907Y-116887746D01*
X116937909Y-116887744D01*
X116943251Y-116883863D01*
X117071037Y-116741942D01*
X117166524Y-116576554D01*
X117225538Y-116394927D01*
X117242903Y-116229710D01*
X117269916Y-116164054D01*
X117279118Y-116153786D01*
X117769405Y-115663499D01*
X117831717Y-115629473D01*
X117902532Y-115634538D01*
X117959368Y-115677085D01*
X117984179Y-115743605D01*
X117984500Y-115752594D01*
X117984500Y-119058481D01*
X117964498Y-119126602D01*
X117952136Y-119142791D01*
X117878963Y-119224058D01*
X117875662Y-119229776D01*
X117788930Y-119380000D01*
X117783476Y-119389446D01*
X117724462Y-119571073D01*
X117704500Y-119761000D01*
X117705190Y-119767565D01*
X117722260Y-119929972D01*
X117724462Y-119950927D01*
X117726502Y-119957205D01*
X117726502Y-119957206D01*
X117744375Y-120012214D01*
X117783476Y-120132554D01*
X117878963Y-120297942D01*
X117883381Y-120302849D01*
X117883382Y-120302850D01*
X118002327Y-120434952D01*
X118006749Y-120439863D01*
X118012091Y-120443744D01*
X118012093Y-120443746D01*
X118031130Y-120457577D01*
X118161250Y-120552114D01*
X118167278Y-120554798D01*
X118167280Y-120554799D01*
X118329682Y-120627105D01*
X118335713Y-120629790D01*
X118429113Y-120649643D01*
X118516056Y-120668124D01*
X118516061Y-120668124D01*
X118522513Y-120669496D01*
X118713487Y-120669496D01*
X118719939Y-120668124D01*
X118719944Y-120668124D01*
X118806887Y-120649643D01*
X118900287Y-120629790D01*
X118906318Y-120627105D01*
X119068720Y-120554799D01*
X119068722Y-120554798D01*
X119074750Y-120552114D01*
X119204870Y-120457577D01*
X119223907Y-120443746D01*
X119223909Y-120443744D01*
X119229251Y-120439863D01*
X119233673Y-120434952D01*
X119352618Y-120302850D01*
X119352619Y-120302849D01*
X119357037Y-120297942D01*
X119452524Y-120132554D01*
X119491625Y-120012214D01*
X119509498Y-119957206D01*
X119509498Y-119957205D01*
X119511538Y-119950927D01*
X119513741Y-119929972D01*
X119530810Y-119767565D01*
X119531500Y-119761000D01*
X119511538Y-119571073D01*
X119452524Y-119389446D01*
X119447071Y-119380000D01*
X119360338Y-119229776D01*
X119357037Y-119224058D01*
X119283864Y-119142791D01*
X119253146Y-119078784D01*
X119251500Y-119058481D01*
X119251500Y-114494519D01*
X119271502Y-114426398D01*
X119283864Y-114410209D01*
X119286943Y-114406790D01*
X119357037Y-114328942D01*
X119452524Y-114163554D01*
X119502851Y-114008663D01*
X119542924Y-113950057D01*
X119608321Y-113922420D01*
X119678278Y-113934527D01*
X119731803Y-113984599D01*
X119780661Y-114069224D01*
X119780664Y-114069229D01*
X119783963Y-114074942D01*
X119911749Y-114216863D01*
X119917091Y-114220744D01*
X119917093Y-114220746D01*
X120058143Y-114323224D01*
X120066250Y-114329114D01*
X120072278Y-114331798D01*
X120072280Y-114331799D01*
X120234682Y-114404105D01*
X120240713Y-114406790D01*
X120332960Y-114426398D01*
X120421056Y-114445124D01*
X120421061Y-114445124D01*
X120427513Y-114446496D01*
X120618487Y-114446496D01*
X120624939Y-114445124D01*
X120624944Y-114445124D01*
X120713040Y-114426398D01*
X120805287Y-114406790D01*
X120811318Y-114404105D01*
X120973720Y-114331799D01*
X120973722Y-114331798D01*
X120979750Y-114329114D01*
X120998976Y-114315146D01*
X121086439Y-114251600D01*
X121153307Y-114227741D01*
X121222458Y-114243822D01*
X121271939Y-114294736D01*
X121286500Y-114353536D01*
X121286500Y-118677481D01*
X121266498Y-118745602D01*
X121254136Y-118761791D01*
X121180963Y-118843058D01*
X121085476Y-119008446D01*
X121026462Y-119190073D01*
X121006500Y-119380000D01*
X121026462Y-119569927D01*
X121028502Y-119576205D01*
X121028502Y-119576206D01*
X121040714Y-119613790D01*
X121085476Y-119751554D01*
X121088779Y-119757276D01*
X121088780Y-119757277D01*
X121094720Y-119767565D01*
X121180963Y-119916942D01*
X121251718Y-119995523D01*
X121254136Y-119998209D01*
X121284854Y-120062216D01*
X121286500Y-120082519D01*
X121286500Y-123873616D01*
X121285986Y-123884520D01*
X121284334Y-123891911D01*
X121284583Y-123899837D01*
X121284583Y-123899838D01*
X121286438Y-123958866D01*
X121286500Y-123962823D01*
X121286500Y-123991578D01*
X121286996Y-123995503D01*
X121286996Y-123995504D01*
X121287039Y-123995843D01*
X121287972Y-124007687D01*
X121289361Y-124051883D01*
X121294767Y-124070490D01*
X121295012Y-124071333D01*
X121299022Y-124090696D01*
X121300437Y-124101895D01*
X121301560Y-124110788D01*
X121304476Y-124118153D01*
X121304477Y-124118157D01*
X121317837Y-124151901D01*
X121321681Y-124163128D01*
X121334014Y-124205578D01*
X121338052Y-124212406D01*
X121344323Y-124223011D01*
X121353019Y-124240762D01*
X121357558Y-124252226D01*
X121360478Y-124259600D01*
X121385507Y-124294048D01*
X121386465Y-124295367D01*
X121392983Y-124305290D01*
X121415486Y-124343341D01*
X121415855Y-124343759D01*
X121429938Y-124357842D01*
X121442772Y-124372867D01*
X121454554Y-124389083D01*
X121488335Y-124417029D01*
X121497115Y-124425019D01*
X122432609Y-125360513D01*
X122439969Y-125368601D01*
X122444027Y-125374995D01*
X122449804Y-125380420D01*
X122492878Y-125420869D01*
X122495720Y-125423624D01*
X122516034Y-125443938D01*
X122519445Y-125446583D01*
X122528465Y-125454287D01*
X122560699Y-125484557D01*
X122567643Y-125488374D01*
X122567645Y-125488376D01*
X122578453Y-125494318D01*
X122594977Y-125505172D01*
X122610977Y-125517583D01*
X122618248Y-125520730D01*
X122618249Y-125520730D01*
X122651551Y-125535141D01*
X122662207Y-125540362D01*
X122700952Y-125561662D01*
X122708635Y-125563634D01*
X122708636Y-125563635D01*
X122720568Y-125566699D01*
X122739272Y-125573103D01*
X122750585Y-125577999D01*
X122750592Y-125578001D01*
X122757864Y-125581148D01*
X122765688Y-125582387D01*
X122765691Y-125582388D01*
X122801535Y-125588065D01*
X122813156Y-125590472D01*
X122850218Y-125599987D01*
X122855975Y-125601465D01*
X122856531Y-125601500D01*
X122876452Y-125601500D01*
X122896162Y-125603051D01*
X122908114Y-125604944D01*
X122908115Y-125604944D01*
X122915944Y-125606184D01*
X122923836Y-125605438D01*
X122959582Y-125602059D01*
X122971440Y-125601500D01*
X123224500Y-125601500D01*
X123292621Y-125621502D01*
X123339114Y-125675158D01*
X123350500Y-125727500D01*
X123350500Y-127043499D01*
X123330498Y-127111620D01*
X123276842Y-127158113D01*
X123224500Y-127169499D01*
X114147593Y-127169499D01*
X114079472Y-127149497D01*
X114058498Y-127132594D01*
X110218899Y-123292995D01*
X110184873Y-123230683D01*
X110189938Y-123159868D01*
X110232485Y-123103032D01*
X110299005Y-123078221D01*
X110324549Y-123078992D01*
X110447485Y-123095286D01*
X110447490Y-123095286D01*
X110452770Y-123095986D01*
X110458100Y-123095786D01*
X110458101Y-123095786D01*
X110567970Y-123091661D01*
X110683169Y-123087337D01*
X110765632Y-123070034D01*
X110903589Y-123041088D01*
X110903592Y-123041087D01*
X110908816Y-123039991D01*
X111123260Y-122955303D01*
X111320369Y-122835694D01*
X111494508Y-122684585D01*
X111497891Y-122680459D01*
X111497895Y-122680455D01*
X111637311Y-122510423D01*
X111640696Y-122506295D01*
X111754755Y-122305923D01*
X111833422Y-122089198D01*
X111835305Y-122078788D01*
X111856090Y-121963843D01*
X111874449Y-121862317D01*
X111875020Y-121850221D01*
X111875430Y-121841519D01*
X111875430Y-121841510D01*
X111875500Y-121840030D01*
X111875500Y-121175072D01*
X111861007Y-121004265D01*
X111803084Y-120781098D01*
X111751731Y-120667098D01*
X111710578Y-120575743D01*
X111710577Y-120575741D01*
X111708388Y-120570882D01*
X111579627Y-120379626D01*
X111420482Y-120212799D01*
X111235504Y-120075171D01*
X111230753Y-120072755D01*
X111230749Y-120072753D01*
X111034740Y-119973097D01*
X111034739Y-119973097D01*
X111029982Y-119970678D01*
X110872731Y-119921850D01*
X110814895Y-119903891D01*
X110814889Y-119903890D01*
X110809792Y-119902307D01*
X110698435Y-119887548D01*
X110586515Y-119872714D01*
X110586510Y-119872714D01*
X110581230Y-119872014D01*
X110575900Y-119872214D01*
X110575899Y-119872214D01*
X110466031Y-119876338D01*
X110350831Y-119880663D01*
X110318018Y-119887548D01*
X110130411Y-119926912D01*
X110130408Y-119926913D01*
X110125184Y-119928009D01*
X109910740Y-120012697D01*
X109713631Y-120132306D01*
X109709601Y-120135803D01*
X109616426Y-120216656D01*
X109539492Y-120283415D01*
X109536109Y-120287541D01*
X109536105Y-120287545D01*
X109523556Y-120302850D01*
X109393304Y-120461705D01*
X109390665Y-120466341D01*
X109390663Y-120466344D01*
X109333675Y-120566457D01*
X109279245Y-120662077D01*
X109200578Y-120878802D01*
X109159551Y-121105683D01*
X109158500Y-121127970D01*
X109158500Y-121792928D01*
X109162497Y-121840030D01*
X109170115Y-121929819D01*
X109155944Y-121999387D01*
X109106411Y-122050250D01*
X109037243Y-122066259D01*
X108970400Y-122042332D01*
X108955471Y-122029567D01*
X108620405Y-121694501D01*
X108586379Y-121632189D01*
X108583500Y-121605406D01*
X108583500Y-118812519D01*
X108603502Y-118744398D01*
X108615864Y-118728209D01*
X108684618Y-118651850D01*
X108684619Y-118651849D01*
X108689037Y-118646942D01*
X108784524Y-118481554D01*
X108843538Y-118299927D01*
X108863500Y-118110000D01*
X108843538Y-117920073D01*
X108830159Y-117878895D01*
X108786566Y-117744731D01*
X108784524Y-117738446D01*
X108689037Y-117573058D01*
X108561251Y-117431137D01*
X108555909Y-117427256D01*
X108555907Y-117427254D01*
X108412092Y-117322767D01*
X108412091Y-117322766D01*
X108406750Y-117318886D01*
X108400722Y-117316202D01*
X108400720Y-117316201D01*
X108238318Y-117243895D01*
X108238317Y-117243895D01*
X108232287Y-117241210D01*
X108138887Y-117221357D01*
X108051944Y-117202876D01*
X108051939Y-117202876D01*
X108045487Y-117201504D01*
X107854513Y-117201504D01*
X107848061Y-117202876D01*
X107848056Y-117202876D01*
X107761113Y-117221357D01*
X107667713Y-117241210D01*
X107661683Y-117243895D01*
X107661682Y-117243895D01*
X107499280Y-117316201D01*
X107499278Y-117316202D01*
X107493250Y-117318886D01*
X107487909Y-117322766D01*
X107487908Y-117322767D01*
X107344093Y-117427254D01*
X107344091Y-117427256D01*
X107338749Y-117431137D01*
X107210963Y-117573058D01*
X107115476Y-117738446D01*
X107113434Y-117744731D01*
X107069842Y-117878895D01*
X107056462Y-117920073D01*
X107036500Y-118110000D01*
X97028000Y-118110000D01*
X97028000Y-108008982D01*
X135877479Y-108008982D01*
X135878328Y-108014252D01*
X135878328Y-108014254D01*
X135903070Y-108167863D01*
X135915487Y-108244957D01*
X135917212Y-108250009D01*
X135917212Y-108250010D01*
X135965989Y-108392881D01*
X135992711Y-108471153D01*
X136106943Y-108681105D01*
X136254916Y-108868807D01*
X136432399Y-109028895D01*
X136436913Y-109031754D01*
X136458450Y-109045396D01*
X136505294Y-109098745D01*
X136515860Y-109168951D01*
X136486791Y-109233724D01*
X136462557Y-109254316D01*
X136463049Y-109254990D01*
X136458733Y-109258137D01*
X136454171Y-109260906D01*
X136273647Y-109417557D01*
X136270264Y-109421683D01*
X136270259Y-109421688D01*
X136191866Y-109517296D01*
X136122098Y-109602385D01*
X136003857Y-109810104D01*
X135922304Y-110034777D01*
X135879773Y-110269978D01*
X135879722Y-110275318D01*
X135877676Y-110488500D01*
X135877479Y-110508982D01*
X135878328Y-110514252D01*
X135878328Y-110514254D01*
X135912299Y-110725162D01*
X135915487Y-110744957D01*
X135917212Y-110750009D01*
X135917212Y-110750010D01*
X135965989Y-110892881D01*
X135992711Y-110971153D01*
X136106943Y-111181105D01*
X136254916Y-111368807D01*
X136432399Y-111528895D01*
X136463955Y-111548882D01*
X136467049Y-111550842D01*
X136513894Y-111604190D01*
X136524461Y-111674396D01*
X136492694Y-111742225D01*
X136491599Y-111743425D01*
X136495281Y-111752070D01*
X137274189Y-112530979D01*
X137288132Y-112538592D01*
X137289966Y-112538461D01*
X137296580Y-112534210D01*
X138074456Y-111756333D01*
X138081183Y-111744013D01*
X138071936Y-111731698D01*
X138047027Y-111665215D01*
X138062017Y-111595819D01*
X138099434Y-111553527D01*
X138203117Y-111479434D01*
X138270138Y-111411826D01*
X138367635Y-111313475D01*
X138367636Y-111313474D01*
X138371388Y-111309689D01*
X138508652Y-111114019D01*
X138610986Y-110898018D01*
X138675463Y-110667863D01*
X138678135Y-110642233D01*
X138699933Y-110433083D01*
X138699933Y-110433080D01*
X138700240Y-110430136D01*
X138700500Y-110403000D01*
X138680292Y-110164840D01*
X138678951Y-110159672D01*
X138621586Y-109938655D01*
X138621584Y-109938650D01*
X138620245Y-109933490D01*
X138522077Y-109715565D01*
X138388594Y-109517296D01*
X138362299Y-109489731D01*
X138259400Y-109381866D01*
X138223613Y-109344351D01*
X138219340Y-109341172D01*
X138219330Y-109341163D01*
X138102023Y-109253885D01*
X138059309Y-109197175D01*
X138054036Y-109126374D01*
X138087878Y-109063963D01*
X138103977Y-109050282D01*
X138198764Y-108982546D01*
X138198773Y-108982538D01*
X138203117Y-108979434D01*
X138371388Y-108809689D01*
X138508652Y-108614019D01*
X138610986Y-108398018D01*
X138675463Y-108167863D01*
X138692023Y-108008982D01*
X138699933Y-107933083D01*
X138699933Y-107933080D01*
X138700240Y-107930136D01*
X138700500Y-107903000D01*
X138680292Y-107664840D01*
X138678951Y-107659672D01*
X138621586Y-107438655D01*
X138621584Y-107438650D01*
X138620245Y-107433490D01*
X138522077Y-107215565D01*
X138388594Y-107017296D01*
X138223613Y-106844351D01*
X138031852Y-106701677D01*
X138027101Y-106699261D01*
X138027097Y-106699259D01*
X137823549Y-106595770D01*
X137823548Y-106595770D01*
X137818793Y-106593352D01*
X137590528Y-106522474D01*
X137569210Y-106519648D01*
X137358868Y-106491769D01*
X137358865Y-106491769D01*
X137353585Y-106491069D01*
X137348256Y-106491269D01*
X137348255Y-106491269D01*
X137251684Y-106494895D01*
X137114738Y-106500036D01*
X137028316Y-106518169D01*
X136886043Y-106548021D01*
X136886040Y-106548022D01*
X136880816Y-106549118D01*
X136658508Y-106636911D01*
X136653944Y-106639680D01*
X136653945Y-106639680D01*
X136458732Y-106758138D01*
X136458729Y-106758140D01*
X136454171Y-106760906D01*
X136273647Y-106917557D01*
X136270264Y-106921683D01*
X136270259Y-106921688D01*
X136191866Y-107017296D01*
X136122098Y-107102385D01*
X136003857Y-107310104D01*
X135922304Y-107534777D01*
X135879773Y-107769978D01*
X135879722Y-107775318D01*
X135878525Y-107900052D01*
X135877479Y-108008982D01*
X97028000Y-108008982D01*
X97028000Y-106044000D01*
X97048002Y-105975879D01*
X97101658Y-105929386D01*
X97154000Y-105918000D01*
X141606000Y-105918000D01*
X141674121Y-105938002D01*
G37*
G04 #@! TD.AperFunction*
G04 #@! TD*
M02*
