G04 #@! TF.GenerationSoftware,KiCad,Pcbnew,(5.99.0-8616-g1e9639e89c)*
G04 #@! TF.CreationDate,2021-02-03T17:52:52+01:00*
G04 #@! TF.ProjectId,sinitsa,616c6c62-616e-4642-9e6b-696361645f70,rev?*
G04 #@! TF.SameCoordinates,Original*
G04 #@! TF.FileFunction,Soldermask,Top*
G04 #@! TF.FilePolarity,Negative*
%FSLAX46Y46*%
G04 Gerber Fmt 4.6, Leading zero omitted, Abs format (unit mm)*
G04 Created by KiCad (PCBNEW (5.99.0-8616-g1e9639e89c)) date 2021-02-03 17:52:52*
%MOMM*%
%LPD*%
G01*
G04 APERTURE LIST*
G04 Aperture macros list*
%AMRoundRect*
0 Rectangle with rounded corners*
0 $1 Rounding radius*
0 $2 $3 $4 $5 $6 $7 $8 $9 X,Y pos of 4 corners*
0 Add a 4 corners polygon primitive as box body*
4,1,4,$2,$3,$4,$5,$6,$7,$8,$9,$2,$3,0*
0 Add four circle primitives for the rounded corners*
1,1,$1+$1,$2,$3*
1,1,$1+$1,$4,$5*
1,1,$1+$1,$6,$7*
1,1,$1+$1,$8,$9*
0 Add four rect primitives between the rounded corners*
20,1,$1+$1,$2,$3,$4,$5,0*
20,1,$1+$1,$4,$5,$6,$7,0*
20,1,$1+$1,$6,$7,$8,$9,0*
20,1,$1+$1,$8,$9,$2,$3,0*%
G04 Aperture macros list end*
G04 #@! TA.AperFunction,Profile*
%ADD10C,0.050000*%
G04 #@! TD*
%ADD11O,2.600000X1.600000*%
%ADD12O,1.700000X2.200000*%
%ADD13O,1.700000X2.700000*%
%ADD14R,1.700000X1.700000*%
%ADD15O,1.700000X1.700000*%
%ADD16RoundRect,0.147500X-0.172500X0.147500X-0.172500X-0.147500X0.172500X-0.147500X0.172500X0.147500X0*%
%ADD17RoundRect,0.147500X0.147500X0.172500X-0.147500X0.172500X-0.147500X-0.172500X0.147500X-0.172500X0*%
%ADD18RoundRect,0.225000X0.250000X-0.225000X0.250000X0.225000X-0.250000X0.225000X-0.250000X-0.225000X0*%
%ADD19RoundRect,0.250000X-0.550000X1.500000X-0.550000X-1.500000X0.550000X-1.500000X0.550000X1.500000X0*%
%ADD20RoundRect,0.147500X-0.147500X-0.172500X0.147500X-0.172500X0.147500X0.172500X-0.147500X0.172500X0*%
%ADD21R,0.900000X0.800000*%
%ADD22R,0.700000X0.600000*%
%ADD23RoundRect,0.150000X0.825000X0.150000X-0.825000X0.150000X-0.825000X-0.150000X0.825000X-0.150000X0*%
%ADD24RoundRect,0.243750X0.456250X-0.243750X0.456250X0.243750X-0.456250X0.243750X-0.456250X-0.243750X0*%
%ADD25C,1.800000*%
%ADD26RoundRect,0.147500X0.172500X-0.147500X0.172500X0.147500X-0.172500X0.147500X-0.172500X-0.147500X0*%
%ADD27R,0.450000X0.700000*%
%ADD28R,5.080000X1.500000*%
%ADD29RoundRect,0.135000X-0.135000X-0.185000X0.135000X-0.185000X0.135000X0.185000X-0.135000X0.185000X0*%
%ADD30RoundRect,0.140000X-0.140000X-0.170000X0.140000X-0.170000X0.140000X0.170000X-0.140000X0.170000X0*%
%ADD31C,4.000000*%
%ADD32C,0.800000*%
G04 APERTURE END LIST*
D10*
X96520000Y-105410000D02*
X96520000Y-132080000D01*
X142240000Y-105410000D02*
X142240000Y-132080000D01*
X96520000Y-132080000D02*
X142240000Y-132080000D01*
X142240000Y-105410000D02*
X96520000Y-105410000D01*
D11*
G04 #@! TO.C,J2*
X109517000Y-128384000D03*
D12*
X111817000Y-130484000D03*
D13*
X102517000Y-128184000D03*
D12*
X110517000Y-121484000D03*
G04 #@! TD*
D14*
G04 #@! TO.C,BAT1*
X124714000Y-126365000D03*
D15*
X124714000Y-128905000D03*
G04 #@! TD*
D16*
G04 #@! TO.C,C1*
X104902000Y-111783000D03*
X104902000Y-112753000D03*
G04 #@! TD*
D17*
G04 #@! TO.C,C2*
X112372000Y-115697000D03*
X111402000Y-115697000D03*
G04 #@! TD*
G04 #@! TO.C,C3*
X117325000Y-111125000D03*
X116355000Y-111125000D03*
G04 #@! TD*
G04 #@! TO.C,C4*
X114785000Y-111125000D03*
X113815000Y-111125000D03*
G04 #@! TD*
D16*
G04 #@! TO.C,C5*
X111125000Y-110005000D03*
X111125000Y-110975000D03*
G04 #@! TD*
D18*
G04 #@! TO.C,C6*
X133604000Y-119266000D03*
X133604000Y-117716000D03*
G04 #@! TD*
D19*
G04 #@! TO.C,C7*
X118110000Y-123665000D03*
X118110000Y-129065000D03*
G04 #@! TD*
D20*
G04 #@! TO.C,C8*
X117625000Y-116205000D03*
X118595000Y-116205000D03*
G04 #@! TD*
G04 #@! TO.C,C9*
X119530000Y-114935000D03*
X120500000Y-114935000D03*
G04 #@! TD*
D17*
G04 #@! TO.C,C10*
X120500000Y-118745000D03*
X119530000Y-118745000D03*
G04 #@! TD*
D20*
G04 #@! TO.C,C100*
X123721000Y-120396000D03*
X124691000Y-120396000D03*
G04 #@! TD*
D21*
G04 #@! TO.C,D1*
X109585000Y-112715000D03*
X107585000Y-113665000D03*
X109585000Y-114615000D03*
G04 #@! TD*
D22*
G04 #@! TO.C,D2*
X115697000Y-119445000D03*
X115697000Y-118045000D03*
G04 #@! TD*
G04 #@! TO.C,D3*
X114173000Y-118045000D03*
X114173000Y-119445000D03*
G04 #@! TD*
D23*
G04 #@! TO.C,IC1*
X128611400Y-119024400D03*
X128611400Y-117754400D03*
X128611400Y-116484400D03*
X128611400Y-115214400D03*
X123661400Y-115214400D03*
X123661400Y-116484400D03*
X123661400Y-117754400D03*
X123661400Y-119024400D03*
G04 #@! TD*
D24*
G04 #@! TO.C,L1*
X105918000Y-118285500D03*
X105918000Y-116410500D03*
G04 #@! TD*
D16*
G04 #@! TO.C,R1*
X104902000Y-113815000D03*
X104902000Y-114785000D03*
G04 #@! TD*
G04 #@! TO.C,R2*
X111252000Y-113688000D03*
X111252000Y-114658000D03*
G04 #@! TD*
G04 #@! TO.C,R3*
X112395000Y-113688000D03*
X112395000Y-114658000D03*
G04 #@! TD*
D20*
G04 #@! TO.C,R4*
X111425000Y-112522000D03*
X112395000Y-112522000D03*
G04 #@! TD*
D16*
G04 #@! TO.C,R5*
X109855000Y-110005000D03*
X109855000Y-110975000D03*
G04 #@! TD*
D20*
G04 #@! TO.C,R7*
X130960000Y-120650000D03*
X131930000Y-120650000D03*
G04 #@! TD*
G04 #@! TO.C,R8*
X130960000Y-117729000D03*
X131930000Y-117729000D03*
G04 #@! TD*
G04 #@! TO.C,R9*
X130960000Y-119380000D03*
X131930000Y-119380000D03*
G04 #@! TD*
D25*
G04 #@! TO.C,R18*
X137287000Y-112903000D03*
X137287000Y-110403000D03*
X137287000Y-107903000D03*
G04 #@! TD*
D20*
G04 #@! TO.C,R11*
X123721000Y-121412000D03*
X124691000Y-121412000D03*
G04 #@! TD*
D26*
G04 #@! TO.C,R12*
X125730000Y-121389000D03*
X125730000Y-120419000D03*
G04 #@! TD*
D20*
G04 #@! TO.C,R13*
X123744000Y-122428000D03*
X124714000Y-122428000D03*
G04 #@! TD*
G04 #@! TO.C,R14*
X114196000Y-116840000D03*
X115166000Y-116840000D03*
G04 #@! TD*
G04 #@! TO.C,R15*
X119520600Y-116205000D03*
X120490600Y-116205000D03*
G04 #@! TD*
D17*
G04 #@! TO.C,R16*
X120490600Y-117475000D03*
X119520600Y-117475000D03*
G04 #@! TD*
G04 #@! TO.C,R17*
X118595000Y-114935000D03*
X117625000Y-114935000D03*
G04 #@! TD*
D20*
G04 #@! TO.C,R19*
X123721000Y-123444000D03*
X124691000Y-123444000D03*
G04 #@! TD*
D25*
G04 #@! TO.C,R20*
X137033000Y-129540000D03*
X137033000Y-127040000D03*
X137033000Y-124540000D03*
G04 #@! TD*
D27*
G04 #@! TO.C,T1*
X114285000Y-114665000D03*
X115585000Y-114665000D03*
X114935000Y-112665000D03*
G04 #@! TD*
D28*
G04 #@! TO.C,X1*
X100330000Y-111760000D03*
X100330000Y-116010000D03*
X100330000Y-107510000D03*
G04 #@! TD*
D24*
G04 #@! TO.C,LED1*
X141224000Y-119555500D03*
X141224000Y-117680500D03*
G04 #@! TD*
D26*
G04 #@! TO.C,R10*
X138684000Y-118595000D03*
X138684000Y-117625000D03*
G04 #@! TD*
D17*
G04 #@! TO.C,C11*
X118595000Y-117475000D03*
X117625000Y-117475000D03*
G04 #@! TD*
G04 #@! TO.C,R21*
X118595000Y-118745000D03*
X117625000Y-118745000D03*
G04 #@! TD*
D29*
G04 #@! TO.C,R22*
X126746000Y-113030000D03*
X127766000Y-113030000D03*
G04 #@! TD*
D26*
G04 #@! TO.C,L2*
X105918000Y-114785000D03*
X105918000Y-113815000D03*
G04 #@! TD*
D30*
G04 #@! TO.C,C12*
X132235000Y-114554000D03*
X133195000Y-114554000D03*
G04 #@! TD*
D29*
G04 #@! TO.C,R6*
X124585000Y-113030000D03*
X125605000Y-113030000D03*
G04 #@! TD*
D30*
G04 #@! TO.C,C13*
X131981000Y-116332000D03*
X132941000Y-116332000D03*
G04 #@! TD*
D22*
G04 #@! TO.C,D4*
X127762000Y-125030000D03*
X127762000Y-126430000D03*
G04 #@! TD*
D31*
X106045000Y-109220000D03*
D32*
X140970000Y-106680000D03*
X120396000Y-130556000D03*
X139065000Y-120650000D03*
X121920000Y-106680000D03*
X111760000Y-106680000D03*
D31*
X132080000Y-110490000D03*
D32*
X107950000Y-111125000D03*
X127000000Y-106680000D03*
X128905000Y-121285000D03*
D31*
X132080000Y-127000000D03*
D32*
X106680000Y-106680000D03*
X101600000Y-118745000D03*
X119380000Y-111760000D03*
X140970000Y-125730000D03*
X114935000Y-121920000D03*
X114300000Y-129540000D03*
X106680000Y-121920000D03*
X116840000Y-106680000D03*
X132080000Y-106680000D03*
X101600000Y-121920000D03*
X125730000Y-116840000D03*
X129413000Y-113030000D03*
X110490000Y-118110000D03*
X121920000Y-119380000D03*
X123063000Y-112776000D03*
X137160000Y-118745000D03*
X112395000Y-109855000D03*
X126746000Y-124968000D03*
X116332000Y-116205000D03*
X120523000Y-113538000D03*
X118618000Y-113792000D03*
X118618000Y-119761000D03*
X107950000Y-118110000D03*
M02*
